<svg width="45" height="11" fill="none" xmlns="http://www.w3.org/2000/svg"><path d="M1.456 7.21c-.01.513.07.943.238 1.288.168.345.397.62.686.826.299.205.649.355 1.05.448.401.084.83.126 1.288.126.261 0 .546-.037.854-.112.308-.075.593-.191.854-.35.27-.168.495-.378.672-.63a1.63 1.63 0 0 0 .266-.938c0-.28-.065-.523-.196-.728a1.62 1.62 0 0 0-.49-.518 2.572 2.572 0 0 0-.658-.336 5.69 5.69 0 0 0-.714-.224L3.08 5.516a7.022 7.022 0 0 1-.854-.28 2.435 2.435 0 0 1-.714-.448 2.217 2.217 0 0 1-.504-.686C.887 3.832.826 3.5.826 3.108c0-.243.047-.527.14-.854.093-.327.266-.635.518-.924.261-.29.616-.532 1.064-.728C2.996.397 3.57.294 4.27.294c.495 0 .966.065 1.414.196.448.13.84.327 1.176.588.336.261.602.588.798.98.205.383.308.83.308 1.344h-.952a2.207 2.207 0 0 0-.266-.994c-.15-.29-.35-.527-.602-.714a2.384 2.384 0 0 0-.854-.434 3.255 3.255 0 0 0-1.008-.154c-.327 0-.644.037-.952.112a2.264 2.264 0 0 0-.798.336c-.224.15-.406.35-.546.602s-.21.565-.21.938c0 .233.037.439.112.616.084.168.196.313.336.434s.299.22.476.294c.187.075.383.135.588.182l2.436.602c.355.093.686.21.994.35.317.13.593.299.826.504.243.196.43.439.56.728.14.29.21.64.21 1.05 0 .112-.014.261-.042.448a2.028 2.028 0 0 1-.168.602c-.084.205-.21.415-.378.63-.159.215-.383.41-.672.588-.28.168-.63.303-1.05.406-.42.112-.924.168-1.512.168a6.511 6.511 0 0 1-1.638-.196 3.612 3.612 0 0 1-1.288-.63c-.355-.28-.63-.64-.826-1.078C.555 8.353.476 7.826.504 7.21h.952Zm9.322-1.806h3.276c.663 0 1.2-.168 1.61-.504.411-.336.616-.85.616-1.54 0-.69-.205-1.204-.616-1.54-.41-.336-.947-.504-1.61-.504h-3.276v4.088Zm-.952-4.9h4.438c.448 0 .854.065 1.218.196.364.121.677.308.938.56.262.243.462.541.602.896.14.355.21.756.21 1.204 0 .448-.07.85-.21 1.204-.14.355-.34.658-.602.91a2.7 2.7 0 0 1-.938.56c-.364.121-.77.182-1.218.182h-3.486V10.5h-.952V.504Zm8.819 0h6.902v.812h-5.95v3.612h5.572v.812h-5.572v3.948h6.02v.812h-6.972V.504Zm15.607 3.024a3.027 3.027 0 0 0-.42-1.022 2.638 2.638 0 0 0-.7-.77 2.888 2.888 0 0 0-.91-.462 3.172 3.172 0 0 0-1.037-.168c-.662 0-1.232.126-1.707.378A3.42 3.42 0 0 0 28.3 2.492c-.298.41-.522.877-.671 1.4a6.301 6.301 0 0 0 0 3.22c.149.523.373.994.671 1.414.309.41.7.742 1.177.994.475.252 1.045.378 1.707.378.467 0 .887-.084 1.26-.252.374-.168.696-.397.966-.686.271-.29.49-.625.658-1.008.168-.392.276-.812.322-1.26h.953a5.393 5.393 0 0 1-.434 1.666 4.09 4.09 0 0 1-.868 1.26 3.672 3.672 0 0 1-1.26.798 4.339 4.339 0 0 1-1.596.28c-.785 0-1.475-.14-2.073-.42a4.38 4.38 0 0 1-1.47-1.148 4.85 4.85 0 0 1-.881-1.652 6.562 6.562 0 0 1-.294-1.974c0-.69.098-1.349.294-1.974a4.85 4.85 0 0 1 .881-1.652 4.158 4.158 0 0 1 1.47-1.148c.598-.29 1.288-.434 2.073-.434.476 0 .938.07 1.386.21.457.14.867.35 1.231.63.374.27.682.607.925 1.008.252.401.41.863.475 1.386h-.952Zm2.997 3.682c-.01.513.07.943.238 1.288.168.345.397.62.686.826.299.205.649.355 1.05.448.401.084.83.126 1.288.126.261 0 .546-.037.854-.112.308-.075.593-.191.854-.35.27-.168.495-.378.672-.63a1.63 1.63 0 0 0 .266-.938c0-.28-.065-.523-.196-.728a1.62 1.62 0 0 0-.49-.518 2.573 2.573 0 0 0-.658-.336 5.694 5.694 0 0 0-.714-.224l-2.226-.546a7.018 7.018 0 0 1-.854-.28 2.434 2.434 0 0 1-.714-.448 2.215 2.215 0 0 1-.504-.686c-.121-.27-.182-.602-.182-.994 0-.243.047-.527.14-.854.093-.327.266-.635.518-.924.261-.29.616-.532 1.064-.728.448-.205 1.022-.308 1.722-.308.495 0 .966.065 1.414.196.448.13.84.327 1.176.588.336.261.602.588.798.98.205.383.308.83.308 1.344h-.952a2.209 2.209 0 0 0-.266-.994c-.15-.29-.35-.527-.602-.714a2.385 2.385 0 0 0-.854-.434 3.255 3.255 0 0 0-1.008-.154c-.327 0-.644.037-.952.112a2.263 2.263 0 0 0-.798.336c-.224.15-.406.35-.546.602s-.21.565-.21.938c0 .233.037.439.112.616.084.168.196.313.336.434s.299.22.476.294c.187.075.383.135.588.182l2.436.602c.355.093.686.21.994.35.317.13.593.299.826.504.243.196.43.439.56.728.14.29.21.64.21 1.05 0 .112-.014.261-.042.448a2.03 2.03 0 0 1-.168.602c-.084.205-.21.415-.378.63-.159.215-.383.41-.672.588-.28.168-.63.303-1.05.406-.42.112-.924.168-1.512.168a6.511 6.511 0 0 1-1.638-.196 3.611 3.611 0 0 1-1.288-.63c-.355-.28-.63-.64-.826-1.078-.187-.439-.266-.966-.238-1.582h.952Z" fill="#4F4F4F"/></svg>